<?xml version="1.0" encoding="utf-8"?>
<!-- Generator: Adobe Illustrator 26.5.0, SVG Export Plug-In . SVG Version: 6.00 Build 0)  -->
<svg version="1.1" xmlns="http://www.w3.org/2000/svg" xmlns:xlink="http://www.w3.org/1999/xlink" x="0px" y="0px"
	 viewBox="0 0 40 40" style="enable-background:new 0 0 40 40;" xml:space="preserve">
<style type="text/css">
	.st0{fill:none;}
	.st1{display:none;}
	.st2{display:inline;}
</style>
<g id="Laag_1">
	<rect id="Rectangle_1445" class="st0" width="40" height="40"/>
	<path id="Union_3" d="M20,23.53L4.09,39.45l-3.54-3.54L16.46,20L0.55,4.09l3.54-3.54L20,16.46L35.91,0.55l3.54,3.54L23.53,20
		l15.91,15.91l-3.54,3.54L20,23.53z"/>
</g>
<g id="Laag_2" class="st1">
	<g class="st2">
		<path d="M40.22-6.3c0,6.76,0,13.51,0,20.27c-0.02,0.06-0.04,0.11-0.05,0.17c-0.08,0.75-0.31,1.45-0.7,2.09
			c-1.07,1.71-2.62,2.63-4.64,2.63c-12.17,0.01-24.34,0.01-36.52,0c-0.31,0-0.63-0.03-0.94-0.07c-2.51-0.34-4.52-2.65-4.52-5.18
			c0-6.54,0-13.08,0-19.61c0-0.14,0-0.28,0.01-0.42c0.33-2.96,2.83-4.87,5.41-4.85c2.95,0.03,5.91,0.01,8.86,0.01
			c0.1,0,0.21,0,0.33,0c0-0.12,0-0.22,0-0.31c0-1.23-0.01-2.45,0-3.68c0.01-2.01,1.64-3.63,3.65-3.63c3.6,0,7.2,0,10.8,0
			c0.26,0,0.53,0.02,0.78,0.07c1.51,0.3,2.77,1.68,2.83,3.21c0.06,1.33,0.02,2.66,0.03,3.99c0,0.1,0,0.2,0,0.34
			c0.14,0,0.26,0,0.37,0c2.99,0,5.98,0,8.96,0c0.2,0,0.41,0,0.6,0.03c2.29,0.39,3.81,1.68,4.51,3.9C40.11-6.99,40.15-6.64,40.22-6.3
			z M16.52-8.2C16.52-8.2,16.52-8.19,16.52-8.2c-6.09,0-12.18,0-18.27,0c-1.33,0-2.34,1.03-2.34,2.35c0,6.42,0,12.85,0,19.27
			c0,1.35,1.03,2.37,2.38,2.37c12.16,0,24.32,0,36.48,0c1.33,0,2.35-1,2.36-2.33c0-6.44,0-12.88-0.01-19.32
			c0-0.3-0.06-0.61-0.17-0.89c-0.36-0.94-1.21-1.46-2.33-1.46C28.59-8.2,22.55-8.2,16.52-8.2z M22.49-11.27
			c0-0.09,0.01-0.16,0.01-0.23c0-1.2,0-2.4,0-3.6c0-0.5-0.23-0.72-0.72-0.72c-3.5,0-7.01,0-10.51,0c-0.51,0-0.72,0.21-0.72,0.71
			c0,1.19,0,2.38,0,3.57c0,0.08,0.01,0.17,0.02,0.26C14.55-11.27,18.5-11.27,22.49-11.27z"/>
		<path d="M19.17,6.45c0,0.62,0.02,1.21-0.01,1.81c-0.02,0.42-0.02,0.85-0.14,1.24c-0.26,0.9-1.08,1.47-2.01,1.47
			c-0.51,0-1.02,0.03-1.52-0.05c-1-0.17-1.66-1.02-1.66-2.03c-0.01-0.8,0-1.59,0-2.43c-0.11,0-0.2,0-0.3,0c-0.74,0-1.47,0-2.21,0
			c-1.18-0.01-1.99-0.82-2-2c0-0.41,0-0.82,0-1.23c0.01-1.16,0.91-2.06,2.07-2.07c0.81,0,1.63,0,2.47,0c0-0.47-0.01-0.92,0-1.38
			c0.01-0.51-0.03-1.02,0.06-1.52c0.18-0.98,1.04-1.63,2.04-1.63c0.56,0,1.13-0.03,1.67,0.06c0.89,0.15,1.48,0.94,1.49,1.84
			c0,0.79,0.01,1.57,0.02,2.36c0,0.08,0.01,0.15,0.02,0.25c0.85,0,1.68,0,2.51,0c0.45,0,0.86,0.13,1.22,0.4
			c0.46,0.36,0.74,0.82,0.76,1.4c0.02,0.56,0.06,1.13-0.03,1.67c-0.16,1.07-1.08,1.8-2.19,1.81C20.7,6.46,19.96,6.45,19.17,6.45z
			 M11.31,4.47c0.13,0,0.22,0,0.32,0c0.78,0,1.56,0,2.34,0.01c1.1,0.01,1.83,0.74,1.84,1.83c0.01,0.8,0.02,1.59,0.01,2.39
			c0,0.25,0.08,0.32,0.32,0.3c0.2-0.02,0.4,0,0.6,0c0.44,0,0.45-0.01,0.46-0.46c0.01-0.81,0.01-1.63,0.04-2.44
			c0.03-0.94,0.76-1.63,1.71-1.63c0.81,0,1.61,0,2.42,0c0.15,0,0.31-0.03,0.32-0.2c0.02-0.37,0.01-0.74,0.01-1.12
			c-0.13,0-0.22,0-0.32,0c-0.84,0-1.68,0-2.52,0c-0.89,0-1.61-0.65-1.65-1.54c-0.04-0.89-0.03-1.78-0.04-2.67c0-0.1,0-0.2,0-0.31
			c-0.35,0-0.66,0.01-0.96,0c-0.25-0.02-0.33,0.06-0.33,0.32c0.02,0.84,0.01,1.68,0,2.52c-0.01,1.02-0.68,1.69-1.7,1.69
			c-0.87,0-1.73,0-2.6,0c-0.13,0-0.25-0.01-0.25,0.18C11.32,3.69,11.31,4.06,11.31,4.47z"/>
	</g>
</g>
</svg>
