<?xml version="1.0" encoding="utf-8"?>
<!-- Generator: Adobe Illustrator 26.5.0, SVG Export Plug-In . SVG Version: 6.00 Build 0)  -->
<svg version="1.1" id="Laag_1" xmlns="http://www.w3.org/2000/svg" xmlns:xlink="http://www.w3.org/1999/xlink" x="0px" y="0px"
	 viewBox="0 0 40 40" style="enable-background:new 0 0 40 40;" xml:space="preserve">
<g>
	<path d="M0.68,35.2c0.09-1.07,0.91-1.68,1.56-2.38c3.25-3.5,6.5-6.99,9.75-10.48c0.03-0.03,0.05-0.07,0.08-0.1
		c-4.14-7.39-1.13-15.64,4.57-19.4c5.88-3.87,13.66-3.07,18.56,1.98c5.04,5.2,5.43,13.18,1.25,18.84
		c-4.13,5.59-12.23,7.87-19.15,3.87c-0.53,0.57-1.06,1.14-1.59,1.71c-3.01,3.23-6.02,6.47-9.03,9.7c-0.76,0.82-2.11,0.88-2.94,0.13
		c-0.79-0.71-1.55-1.44-2.33-2.16c-0.4-0.37-0.64-0.81-0.69-1.36c0-0.03-0.02-0.06-0.04-0.09C0.68,35.37,0.68,35.29,0.68,35.2z
		 M27.33,27.55c0.23-0.05,0.42-0.11,0.6-0.14c0.18-0.03,0.23-0.11,0.23-0.3c-0.01-2.63-0.01-5.26-0.02-7.89
		c0-2.29-0.02-4.59-0.02-6.88c0-1.02,0.68-1.82,1.69-1.9c0.87-0.07,1.75-0.04,2.63-0.04c1.22,0,2.04,0.82,2.04,2.04
		c0,3.5,0,7,0,10.5c0,0.1,0,0.19,0,0.34c4.18-4.85,4.26-12.56-0.84-17.55c-4.86-4.76-12.93-4.78-17.81-0.01
		c-4.99,4.88-4.65,11.83-2.13,15.72c0-0.07,0.01-0.12,0.01-0.17c0.02-2.23,0.03-4.46,0.05-6.69c0.01-1.1,0.82-1.92,1.92-1.92
		c0.82,0,1.63,0,2.45,0c1.17,0,1.98,0.81,1.98,1.98c0,4,0,7.99,0,11.99c0,0.1,0,0.21,0,0.32c0.28,0.1,0.54,0.19,0.85,0.29
		c0-0.14,0-0.24,0-0.34c0-2.67,0-5.33,0-8c0-0.1,0-0.21,0.02-0.31c0.14-0.86,0.91-1.46,1.85-1.47c0.87,0,1.74,0,2.61,0
		c0.88,0,1.91,0.61,1.9,1.9c-0.04,2.73-0.01,5.45-0.01,8.18C27.33,27.31,27.33,27.41,27.33,27.55z M13.06,23.76
		c-0.05,0.06-0.1,0.12-0.14,0.17c-2.06,2.22-4.13,4.43-6.19,6.65c-1.37,1.47-2.73,2.93-4.1,4.4c-0.26,0.28-0.24,0.45,0.04,0.7
		c0.7,0.65,1.4,1.3,2.1,1.95c0.32,0.3,0.48,0.29,0.78-0.03c3.08-3.31,6.16-6.62,9.24-9.93c0.35-0.38,0.7-0.76,1.04-1.12
		c-0.49-0.45-0.99-0.86-1.44-1.32C13.93,24.77,13.52,24.27,13.06,23.76z M29.92,26.7c0.05-0.01,0.09-0.02,0.12-0.03
		c0.93-0.41,1.79-0.94,2.59-1.58c0.07-0.05,0.11-0.17,0.11-0.26c0.01-4.12,0-8.25,0.01-12.37c0-0.23-0.09-0.3-0.31-0.3
		c-0.75,0.01-1.49,0.01-2.24,0c-0.25,0-0.34,0.09-0.33,0.34c0.02,0.77,0.02,1.54,0.02,2.32c0.01,2.39,0.02,4.77,0.02,7.16
		c0,1.49,0.01,2.99,0.01,4.48C29.92,26.53,29.92,26.6,29.92,26.7z M18.34,26.09c0.01-0.06,0.02-0.09,0.02-0.11
		c0-3.77,0-7.55,0-11.32c0-0.19-0.08-0.26-0.27-0.25c-0.77,0.01-1.54,0.01-2.32,0c-0.22,0-0.28,0.1-0.28,0.3
		c0,0.4-0.01,0.8-0.01,1.2c-0.01,2.39,0,4.77-0.05,7.16c-0.01,0.59,0.16,0.99,0.6,1.36C16.75,25.02,17.49,25.61,18.34,26.09z
		 M25.57,27.79c0-2.99,0-5.94,0-8.89c-0.96,0-1.9,0-2.85,0c0,2.92,0,5.82,0,8.74C23.67,27.83,24.61,27.81,25.57,27.79z"/>
</g>
</svg>
