<?xml version="1.0" encoding="utf-8"?>
<!-- Generator: Adobe Illustrator 26.5.0, SVG Export Plug-In . SVG Version: 6.00 Build 0)  -->
<svg version="1.1" id="Laag_1" xmlns="http://www.w3.org/2000/svg" xmlns:xlink="http://www.w3.org/1999/xlink" x="0px" y="0px"
	 viewBox="0 0 40 40" style="enable-background:new 0 0 40 40;" xml:space="preserve">
<g>
	<path d="M3.72,39.63c-0.27-0.12-0.57-0.18-0.79-0.36c-0.63-0.48-0.85-1.16-0.81-1.93c0.11-1.93,0.69-3.73,1.44-5.49
		c0.78-1.81,1.79-3.47,3.15-4.9c0.08-0.08,0.06-0.15,0.03-0.24c-0.34-0.95-0.24-1.84,0.4-2.64c0.17-0.21,0.33-0.44,0.51-0.63
		c0.93-1,1.87-2,2.81-3c1.44-1.51,2.88-3.02,4.33-4.53c1.03-1.07,2.05-2.14,3.08-3.22c0.2-0.21,0.4-0.43,0.61-0.64
		c0.8-0.79,2.12-0.54,2.59,0.48c0.43,0.95,1,1.79,1.85,2.42c0.2,0.15,0.42,0.28,0.65,0.39c1.06,0.54,1.27,1.87,0.42,2.71
		c-1.92,1.9-3.83,3.8-5.75,5.69c-1.08,1.07-2.17,2.11-3.23,3.2c-0.66,0.68-1.26,1.41-1.9,2.11c-0.66,0.72-1.47,1.11-2.46,1.09
		c-0.18,0-0.38-0.03-0.55-0.09c-0.18-0.07-0.28-0.01-0.4,0.12c-0.96,1.05-1.78,2.19-2.45,3.44c-0.57,1.05-1.01,2.16-1.22,3.34
		c-0.05,0.27-0.07,0.55-0.13,0.82c-0.18,0.75-0.59,1.34-1.3,1.69c-0.18,0.09-0.39,0.12-0.58,0.18C3.92,39.63,3.82,39.63,3.72,39.63z
		 M19.6,13.67c-0.31,0.28-0.64,0.54-0.93,0.83c-1.24,1.28-2.47,2.58-3.71,3.87c-1.57,1.64-3.15,3.28-4.72,4.93
		c-0.6,0.63-1.14,1.31-1.71,1.96c-0.17,0.2-0.19,0.42-0.12,0.66c0.03,0.1,0.06,0.21,0.11,0.31c0.27,0.65,0.14,1.32-0.34,1.82
		c-0.26,0.27-0.52,0.55-0.76,0.85c-1.89,2.44-3.06,5.18-3.47,8.24c-0.02,0.17,0,0.34,0,0.5c0.02,0,0.03,0.01,0.05,0.01
		c0.04-0.13,0.1-0.25,0.12-0.39c0.1-0.47,0.15-0.95,0.28-1.42c0.76-2.83,2.3-5.22,4.33-7.3c0.49-0.5,1.09-0.57,1.74-0.32
		c0.13,0.05,0.27,0.09,0.4,0.07c0.35-0.05,0.65-0.23,0.9-0.49c0.84-0.92,1.67-1.84,2.53-2.73c0.98-1.01,2-1.98,3-2.97
		c1.71-1.69,3.42-3.39,5.13-5.08c0.05-0.04,0.09-0.09,0.14-0.15C21.19,16.12,20.26,14.97,19.6,13.67z"/>
	<path d="M21.1,31.26c0-0.05,0.01-0.1,0.01-0.15c0-1.24-0.01-2.49-0.01-3.73c-0.01-1.45-0.02-2.9-0.02-4.35
		c0-0.87,0.59-1.46,1.45-1.48c1.42-0.03,2.84-0.08,4.27-0.12c1.24-0.04,2.47-0.07,3.71-0.11c1.29-0.04,2.58-0.1,3.87-0.12
		c0.86-0.01,1.41,0.66,1.42,1.33c0.01,1.63-0.01,3.26-0.02,4.89c-0.01,0.92-0.02,1.85-0.03,2.77c-0.01,1.26-0.01,2.52-0.04,3.78
		c-0.01,0.52-0.26,0.94-0.62,1.31c-0.56,0.58-1.26,0.92-2,1.19c-0.96,0.35-1.95,0.56-2.97,0.53c-1.2-0.03-2.27-0.39-3.14-1.26
		c-1.16-1.16-1.13-2.94,0.06-4.07c0.69-0.66,1.53-1.01,2.47-1.14c0.65-0.09,1.3-0.06,1.94,0.08c0-1.28,0-2.55,0-3.86
		c-2.01,0.12-3.99,0.24-6,0.36c0,0.09,0,0.17,0,0.24c0,2.25-0.02,4.49,0.01,6.74c0.01,0.96-0.38,1.67-1.14,2.21
		c-0.83,0.59-1.77,0.92-2.75,1.14c-0.7,0.16-1.4,0.24-2.12,0.18c-1.3-0.12-2.43-0.59-3.19-1.7c-0.76-1.11-0.62-2.53,0.32-3.5
		c0.77-0.79,1.72-1.17,2.8-1.29C19.95,31.08,20.53,31.14,21.1,31.26z M22.91,23.36c0,0.07-0.01,0.11-0.01,0.16
		c0.01,1.21,0.01,2.41,0.02,3.62c0,0.02,0,0.05,0,0.07c0.01,1.54,0.02,3.08,0.01,4.62c-0.01,0.98-0.95,1.62-1.88,1.31
		c-0.58-0.2-1.16-0.25-1.76-0.15c-0.54,0.1-1.03,0.3-1.41,0.71c-0.17,0.18-0.28,0.39-0.29,0.65c-0.01,0.39,0.2,0.67,0.49,0.9
		c0.47,0.38,1.03,0.54,1.63,0.57c0.84,0.03,1.65-0.15,2.44-0.44c0.46-0.17,0.9-0.37,1.28-0.7c0.14-0.12,0.2-0.27,0.2-0.46
		c-0.01-2.49,0-4.99,0-7.48c0-0.7,0.47-1.29,1.17-1.39c0.48-0.07,0.96-0.08,1.44-0.11c0.88-0.06,1.77-0.1,2.65-0.16
		c1.09-0.07,2.18-0.14,3.27-0.2c0.67-0.04,1.12,0.41,1.12,1.09c0,1.73-0.01,3.45,0.02,5.18c0.01,0.83-0.79,1.69-1.86,1.35
		c-0.57-0.18-1.14-0.25-1.73-0.16c-0.52,0.08-1,0.27-1.39,0.64c-0.49,0.47-0.49,1.03-0.01,1.51c0.45,0.44,1.01,0.63,1.62,0.68
		c0.74,0.06,1.47-0.07,2.17-0.28c0.57-0.17,1.11-0.39,1.58-0.77c0.15-0.13,0.23-0.27,0.23-0.48c0-1.26,0.02-2.52,0.03-3.78
		c0.01-1.3,0.02-2.61,0.03-3.91c0-0.75,0.01-1.5,0.01-2.25c0-0.22,0-0.43,0-0.66C30.28,23.14,26.6,23.25,22.91,23.36z"/>
	<path d="M13.4,6.24c0,0.09,0,0.16,0,0.23c0,2.28-0.02,4.56,0.01,6.85c0.01,0.87-0.34,1.52-1,2.04c-0.58,0.46-1.24,0.76-1.93,0.99
		c-0.91,0.3-1.84,0.49-2.8,0.45c-1.2-0.06-2.29-0.44-3.12-1.34c-1.13-1.24-1.01-3,0.27-4.1c0.82-0.71,1.79-1.04,2.87-1.07
		c0.47-0.01,0.95,0.05,1.43,0.07c0-0.35,0-0.74,0-1.12c-0.01-2.4-0.03-4.8-0.03-7.21c0-0.64,0.56-1.26,1.2-1.31
		c0.77-0.06,1.55-0.1,2.33-0.15c0.89-0.06,1.78-0.12,2.67-0.17c0.4-0.02,0.8-0.06,1.19-0.01c0.64,0.09,1.11,0.69,1.11,1.33
		c0,0.93,0,1.86,0,2.79c0,0.7-0.57,1.3-1.26,1.38C15.35,6,14.39,6.12,13.4,6.24z M10.9,2.5c0,0.08,0,0.15,0,0.21
		c0.01,0.97,0.02,1.94,0.03,2.91c0.01,1.79,0.01,3.59,0.01,5.38c0,0.84-0.79,1.5-1.63,1.35c-0.37-0.07-0.72-0.19-1.09-0.24
		c-0.68-0.08-1.33,0.05-1.92,0.41c-0.08,0.05-0.16,0.11-0.23,0.17c-0.61,0.51-0.61,1.16-0.01,1.68c0.55,0.46,1.21,0.63,1.9,0.61
		c0.87-0.02,1.71-0.22,2.5-0.58c0.34-0.16,0.65-0.39,0.96-0.6c0.13-0.09,0.18-0.24,0.18-0.41c-0.01-2.5,0-5.01,0-7.51
		c0-0.71,0.47-1.29,1.17-1.39c0.7-0.1,1.41-0.17,2.12-0.25c0.3-0.03,0.59-0.07,0.89-0.11c0-0.65,0-1.28,0-1.92
		C14.14,2.3,12.53,2.4,10.9,2.5z"/>
	<path d="M27.79,16.01c-2.78-0.12-4.88-1.23-6.23-3.6c-0.69-1.22-0.92-2.55-0.78-3.94c0.29-2.83,2.24-5.18,4.97-5.99
		c3.94-1.16,8.04,1.35,8.8,5.38c0.71,3.74-1.67,7.26-5.41,7.99C28.67,15.94,28.18,15.96,27.79,16.01z M32.86,9.17
		c0.01-2.74-2.19-5.13-5.14-5.15C24.87,4,22.55,6.33,22.56,9.19c0.01,2.93,2.43,4.99,5.17,4.98C30.61,14.15,32.86,11.97,32.86,9.17z
		"/>
</g>
</svg>
