<?xml version="1.0" encoding="utf-8"?>
<!-- Generator: Adobe Illustrator 26.5.0, SVG Export Plug-In . SVG Version: 6.00 Build 0)  -->
<svg version="1.1" id="Laag_1" xmlns="http://www.w3.org/2000/svg" xmlns:xlink="http://www.w3.org/1999/xlink" x="0px" y="0px"
	 viewBox="0 0 40 40" style="enable-background:new 0 0 40 40;" xml:space="preserve">
<g>
	<path d="M30.29,16.32c-0.06,0.21-0.13,0.43-0.18,0.64c-0.32,1.23-1.13,1.71-2.35,1.36c-1.65-0.48-3.28-0.99-4.93-1.48
		c-0.12-0.03-0.23-0.06-0.4-0.1c0.02,0.56,0.05,1.09,0.07,1.62c0.06,1.36,0.13,2.72,0.19,4.08c0.08,1.81,0.17,3.62,0.25,5.44
		c0.1,2.12,0.19,4.24,0.29,6.36c0.02,0.43,0.14,0.55,0.56,0.55c0.28,0,0.56-0.01,0.83,0c0.35,0.01,0.57,0.19,0.6,0.54
		c0.11,1.26,0.2,2.52,0.29,3.79c0,0.02,0,0.04,0,0.06c-0.02,0.52-0.06,0.56-0.57,0.56c-3.41,0-6.82,0-10.24,0
		c-0.41,0-0.49-0.04-0.46-0.45c0.05-0.81,0.15-1.62,0.23-2.43c0.03-0.27,0.08-0.53,0.09-0.8c0.03-0.77,0.49-1.24,1.27-1.27
		c0.22-0.01,0.45,0,0.71,0c0.32-6.02,0.64-12.01,0.96-18.06c-0.58,0.17-1.11,0.33-1.64,0.49c-1.24,0.37-2.47,0.76-3.72,1.1
		c-1.24,0.34-1.88-0.17-2.35-1.26c-0.14-0.33-0.1-0.67,0.1-1c0.53-0.9,1.33-1.54,2.06-2.25c0.85-0.82,1.73-1.62,2.58-2.44
		c0.55-0.53,1.16-0.83,1.95-0.68c0.25,0.05,0.52,0.07,0.77,0.03c0.18-0.03,0.4-0.15,0.48-0.3c0.07-0.11,0.01-0.39-0.09-0.5
		c-0.87-0.94-1.01-1.96-0.63-3.19c0.47-1.53,0.78-3.11,1.12-4.68c0.2-0.91,0.63-1.55,1.57-1.77c0.16,0,0.33,0,0.49,0
		c0.02,0.01,0.03,0.04,0.05,0.04c0.88,0.16,1.33,0.72,1.52,1.57c0.38,1.71,0.8,3.4,1.19,5.1c0.09,0.4,0.18,0.81,0.15,1.21
		c-0.05,0.69-0.45,1.25-0.87,1.77c-0.18,0.22-0.15,0.41,0.05,0.56c0.15,0.11,0.35,0.2,0.53,0.21c0.42,0.01,0.84-0.02,1.26-0.07
		c0.32-0.04,0.58,0.05,0.81,0.27c1.12,1.05,2.24,2.1,3.36,3.15c0.68,0.64,1.36,1.29,2.04,1.93C30.29,16.11,30.29,16.21,30.29,16.32z
		 M18.17,34.74c0.05,0.01,0.09,0.03,0.13,0.03c1.08,0.01,2.16,0.01,3.25,0.02c0.22,0,0.23-0.11,0.22-0.29
		c-0.11-1.96-0.22-3.91-0.32-5.87c-0.09-1.73-0.17-3.46-0.26-5.19c-0.13-2.5-0.28-5-0.41-7.5c-0.05-0.98-0.05-0.98-1.03-1.01
		c-0.35-0.01-0.52,0.13-0.54,0.49c-0.07,1.14-0.13,2.28-0.19,3.43c-0.07,1.27-0.13,2.53-0.2,3.8c-0.1,1.76-0.2,3.52-0.29,5.28
		c-0.08,1.39-0.15,2.78-0.22,4.17C18.26,32.97,18.22,33.85,18.17,34.74z M19.95,9.36c0.55,0.12,0.92-0.09,1.15-0.59
		c0.06-0.12,0.15-0.22,0.23-0.33c0.19-0.27,0.22-0.57,0.15-0.88c-0.44-1.8-0.89-3.59-1.33-5.39c-0.02-0.08-0.1-0.15-0.15-0.23
		c-0.05,0.08-0.13,0.15-0.15,0.23c-0.43,1.68-0.83,3.37-1.28,5.05c-0.15,0.54-0.05,0.97,0.19,1.44C19.01,9.18,19.34,9.5,19.95,9.36z
		 M28.44,16.75c0.02-0.03,0.04-0.07,0.06-0.1c-0.09-0.13-0.15-0.29-0.26-0.4c-1.22-1.18-2.46-2.35-3.69-3.52
		c-0.38-0.36-0.83-0.54-1.35-0.44c-0.13,0.02-0.3,0.14-0.36,0.26c-0.23,0.42-0.42,0.87-0.63,1.3c-0.25,0.52-0.03,1.1,0.53,1.27
		c1.76,0.53,3.51,1.06,5.27,1.59C28.13,16.75,28.29,16.74,28.44,16.75z M11.29,16.61c0.03,0.05,0.07,0.09,0.1,0.14
		c0.1-0.02,0.19-0.03,0.29-0.06c1.84-0.52,3.67-1.03,5.51-1.56c0.6-0.17,0.82-0.72,0.55-1.29c-0.2-0.44-0.38-0.89-0.58-1.32
		c-0.04-0.09-0.12-0.21-0.19-0.21c-0.49-0.05-1-0.07-1.39,0.31c-1.3,1.23-2.59,2.47-3.89,3.71C11.56,16.43,11.42,16.52,11.29,16.61z
		 M16.2,38.05c2.49,0,4.94,0,7.39,0c0-0.55,0-1.08,0-1.65c-0.14,0-0.26,0-0.38,0c-2.1,0-4.2,0-6.31,0c-0.16,0-0.33-0.02-0.49,0.01
		c-0.07,0.01-0.19,0.1-0.19,0.16C16.19,37.06,16.2,37.54,16.2,38.05z M19.97,10.93c-0.67,0-1.19,0.52-1.19,1.19
		c0,0.7,0.5,1.22,1.18,1.23c0.68,0,1.23-0.54,1.23-1.2C21.19,11.48,20.63,10.93,19.97,10.93z"/>
</g>
</svg>
