<?xml version="1.0" encoding="utf-8"?>
<!-- Generator: Adobe Illustrator 26.5.0, SVG Export Plug-In . SVG Version: 6.00 Build 0)  -->
<svg version="1.1" id="Laag_1" xmlns="http://www.w3.org/2000/svg" xmlns:xlink="http://www.w3.org/1999/xlink" x="0px" y="0px"
	 viewBox="0 0 40 40" style="enable-background:new 0 0 40 40;" xml:space="preserve">
<g>
	<path d="M0.39,38c0-12,0-24.01,0-36.01c0.02-0.11,0.05-0.22,0.06-0.33c0.08-0.69,0.39-1.05,1.07-1.17c0.34-0.06,0.69-0.09,1.03-0.1
		c1.23-0.01,2.47-0.01,3.71,0c1.1,0.01,2.2,0.01,3.3,0.05c0.8,0.03,1.22,0.42,1.35,1.2c0.04,0.25,0.06,0.5,0.06,0.75
		c0.01,2.35,0.01,4.71,0.01,7.06c0,3.06,0,6.12,0,9.18c0,0.11,0,0.22,0,0.37c0.49-0.23,0.93-0.43,1.36-0.64
		c3.64-1.81,7.27-3.63,10.91-5.44c0.28-0.14,0.58-0.26,0.88-0.34c1-0.28,1.68,0.15,1.84,1.17c0.07,0.43,0.07,0.86,0.08,1.3
		c0.02,1.12,0.02,2.24,0.03,3.36c0,0.12,0.05,0.25,0.09,0.41c0.46-0.24,0.87-0.44,1.27-0.66c2.77-1.54,5.53-3.08,8.31-4.61
		c0.63-0.35,1.26-0.71,1.94-0.95c0.94-0.34,1.64,0.11,1.83,1.09c0.06,0.28,0.08,0.57,0.08,0.86c0,7.69,0,15.38,0,23.07
		c0,0.21-0.01,0.42-0.02,0.64c-0.07,0.81-0.44,1.2-1.25,1.33c-0.04,0.01-0.09,0.04-0.13,0.05c-12.12,0-24.24,0-36.36,0
		c-0.07-0.02-0.14-0.05-0.21-0.06c-0.65-0.09-0.98-0.4-1.13-1.03C0.46,38.35,0.43,38.18,0.39,38z M23.01,16.5
		c-0.49,0.23-0.94,0.42-1.37,0.63c-3.56,1.78-7.12,3.56-10.69,5.33c-0.35,0.17-0.72,0.33-1.1,0.43c-1,0.29-1.61-0.09-1.81-1.11
		c-0.07-0.37-0.11-0.74-0.11-1.12c-0.01-5.6,0-11.19,0-16.79c0-0.12,0-0.24,0-0.38c-1.48,0-2.93,0-4.39,0c0,11.02,0,22.02,0,33.02
		c10.99,0,21.97,0,32.94,0c0-6.64,0-13.26,0-19.9c-0.09,0.05-0.15,0.08-0.21,0.11c-3.43,1.91-6.86,3.82-10.3,5.72
		c-0.39,0.22-0.82,0.39-1.25,0.51c-0.68,0.18-1.26-0.15-1.49-0.81c-0.1-0.29-0.18-0.62-0.18-0.93c-0.02-1.46-0.02-2.91-0.03-4.37
		C23.01,16.76,23.01,16.66,23.01,16.5z"/>
	<path d="M29.11,29.81c0-0.85-0.05-1.7,0.01-2.54c0.06-0.81,0.66-1.25,1.51-1.21c0.85,0.03,1.41,0.53,1.42,1.35
		c0.03,1.62,0.02,3.23,0,4.85c-0.01,0.72-0.54,1.22-1.25,1.28c-1.09,0.09-1.69-0.41-1.74-1.51c-0.03-0.74-0.01-1.48-0.01-2.23
		C29.08,29.81,29.09,29.81,29.11,29.81z"/>
	<path d="M13.95,29.84c0,0.83,0.05,1.66-0.01,2.48c-0.07,0.84-0.68,1.27-1.56,1.23c-0.84-0.04-1.36-0.5-1.38-1.35
		c-0.03-1.63-0.02-3.25,0-4.88c0.01-0.68,0.54-1.19,1.21-1.25c1.09-0.1,1.72,0.43,1.77,1.54c0.03,0.74,0.01,1.48,0.01,2.23
		C13.97,29.84,13.96,29.84,13.95,29.84z"/>
	<path d="M17.01,29.8c0-0.76-0.01-1.52,0-2.28c0.02-0.9,0.57-1.45,1.44-1.47c0.92-0.02,1.53,0.51,1.55,1.42
		c0.03,1.55,0.04,3.1,0,4.65c-0.03,1.17-1.21,1.81-2.26,1.28c-0.48-0.24-0.67-0.67-0.73-1.17c-0.02-0.18-0.02-0.37-0.02-0.55
		c0-0.63,0-1.25,0-1.88C17,29.8,17,29.8,17.01,29.8z"/>
	<path d="M23.04,29.81c0-0.78-0.02-1.56,0.01-2.34c0.03-0.9,0.6-1.42,1.49-1.41c0.9,0.01,1.48,0.56,1.5,1.45
		c0.02,0.71,0.01,1.43,0.01,2.14c0,0.8,0.01,1.6,0,2.4c-0.02,1.22-1.13,1.9-2.24,1.38c-0.54-0.25-0.73-0.72-0.75-1.27
		C23.03,31.37,23.04,30.59,23.04,29.81C23.04,29.81,23.04,29.81,23.04,29.81z"/>
</g>
</svg>
