<?xml version="1.0" encoding="utf-8"?>
<!-- Generator: Adobe Illustrator 26.5.0, SVG Export Plug-In . SVG Version: 6.00 Build 0)  -->
<svg version="1.1" xmlns="http://www.w3.org/2000/svg" xmlns:xlink="http://www.w3.org/1999/xlink" x="0px" y="0px"
	 viewBox="0 0 47.37 40" style="enable-background:new 0 0 47.37 40;" xml:space="preserve">
<style type="text/css">
	.st0{display:none;}
	.st1{display:inline;}
</style>
<g id="Laag_1" class="st0">
	<g class="st1">
		<path d="M-5.43,33.25c0-10.54,0-21.09,0-31.63c0.47-0.83,1.2-1.1,2.12-1.1c8.18,0.02,16.36,0.02,24.54,0.03c4.84,0,9.68,0,14.52,0
			c1.09,0,1.65,0.52,1.69,1.58c0.02,0.45,0,0.9,0,1.37c0.21,0,0.34,0,0.47,0c3.24,0,6.48-0.01,9.72,0c1.06,0,2.1,0.2,3.05,0.71
			c1.49,0.8,2.32,2.12,2.71,3.71c0.65,2.63,1.27,5.28,1.86,7.93c0.15,0.68,0.45,1.13,1.08,1.47c1.21,0.64,2.47,1.24,3.41,2.29
			c0.1,0.11,0.18,0.28,0.18,0.43c0.01,4.3,0.01,8.61,0,12.91c0,0.16-0.05,0.33-0.13,0.47c-0.39,0.67-1.01,0.93-1.77,0.92
			c-1.81-0.01-3.63-0.02-5.44-0.02c-0.6,0-0.6,0-0.79,0.56c-1.07,3.18-4.19,5.16-7.72,4.47c-2.57-0.5-4.23-2.13-5.09-4.58
			c-0.12-0.35-0.27-0.46-0.63-0.46c-8.26,0.02-16.51,0.02-24.77,0.02c-0.29,0-0.39,0.1-0.49,0.35c-0.48,1.34-1.18,2.54-2.31,3.44
			c-1.38,1.1-2.99,1.42-4.7,1.32c-1.65-0.1-3.09-0.69-4.24-1.9c-0.81-0.85-1.35-1.87-1.73-2.97c-0.05-0.14-0.07-0.26-0.28-0.26
			c-0.98,0.01-1.96-0.04-2.94,0.02C-4.09,34.39-4.91,34.18-5.43,33.25z M-2.21,3.69c0,6.1,0,12.16,0,18.26c0.13,0,0.24,0,0.35,0
			c11.92,0,23.84,0,35.75,0.01c0.3,0,0.39-0.07,0.39-0.38c-0.01-5.84-0.01-11.68-0.01-17.51c0-0.12,0-0.24,0-0.36
			C22.1,3.69,9.96,3.69-2.21,3.69z M37.52,31.16c0.37,0,0.74-0.01,1.1,0c0.19,0.01,0.26-0.07,0.33-0.24
			c0.18-0.45,0.36-0.91,0.59-1.34c2.08-3.85,7.03-4.74,10.33-1.86c0.95,0.83,1.61,1.86,2,3.06c0.09,0.29,0.23,0.42,0.56,0.42
			c1.31-0.02,2.63,0,3.94,0c0.12,0,0.24-0.01,0.36-0.02c0-0.99,0-1.95,0-2.94c-0.14,0-0.26,0-0.38,0c-0.98,0-1.96,0.01-2.94,0
			c-0.96-0.01-1.62-0.56-1.65-1.51c-0.05-1.32-0.05-2.65,0-3.97c0.04-1.09,0.56-1.54,1.66-1.58c0.93-0.03,1.87-0.02,2.8-0.03
			c0.1,0,0.21-0.01,0.31-0.02c0.01-0.03,0.02-0.06,0.03-0.09c-0.93-0.51-1.85-1.03-2.79-1.52c-0.18-0.09-0.41-0.09-0.62-0.09
			c-3.08-0.01-6.16-0.01-9.25-0.02c-0.27,0-0.53-0.02-0.8-0.06c-0.7-0.1-1.14-0.53-1.26-1.23c-0.04-0.24-0.06-0.49-0.06-0.73
			c0-3.44,0-6.87,0-10.31c0-0.13,0-0.26,0-0.39c-1.45,0-2.86,0-4.27,0C37.52,14.84,37.52,22.96,37.52,31.16z M-2.22,31.18
			c0.63,0,1.23-0.03,1.83,0.01c0.34,0.02,0.47-0.11,0.58-0.42c0.47-1.33,1.18-2.51,2.31-3.39c1.36-1.06,2.93-1.38,4.61-1.3
			c2.34,0.11,4.11,1.19,5.28,3.21c0.34,0.58,0.58,1.22,0.89,1.86c0.09,0,0.22,0,0.35,0c6.55,0,13.11,0,19.66,0
			c0.32,0,0.74,0.08,0.92-0.08c0.16-0.14,0.06-0.58,0.06-0.89c0.01-0.45,0-0.45-0.45-0.45c-3.61-0.01-7.21-0.01-10.82-0.02
			c-1.15,0-1.91-1.04-1.53-2.1c0.22-0.63,0.86-1.04,1.63-1.04c3.57,0,7.14,0,10.72,0c0.13,0,0.26,0,0.39,0c0-0.5,0-0.96,0-1.42
			c-12.16,0-24.3,0-36.44,0C-2.22,27.16-2.22,29.15-2.22,31.18z M52.11,16.22c-0.01-0.05-0.01-0.1-0.02-0.14
			c-0.61-2.59-1.21-5.18-1.84-7.76c-0.22-0.92-0.93-1.52-1.77-1.57c-0.65-0.04-1.31-0.05-1.97-0.07c-0.5-0.01-0.99,0-1.5,0
			c0,3.22,0,6.37,0,9.54C47.38,16.22,49.74,16.22,52.11,16.22z M3.04,32.74c0,1.98,1.63,3.63,3.59,3.62c1.96,0,3.63-1.68,3.61-3.62
			c-0.02-1.95-1.66-3.57-3.62-3.57C4.67,29.18,3.04,30.8,3.04,32.74z M49,32.81c0-2.01-1.59-3.62-3.58-3.63
			c-1.92-0.01-3.58,1.6-3.58,3.48c0,2.07,1.57,3.7,3.57,3.7C47.36,36.36,49,34.74,49,32.81z M54.92,24.38c0,0.24,0,0.44,0,0.64
			c0.62,0,1.21,0,1.8,0c0-0.23,0-0.43,0-0.64C56.11,24.38,55.53,24.38,54.92,24.38z"/>
		<path d="M18.15,29.49c-0.38-0.06-0.77-0.09-1.14-0.2c-0.53-0.16-0.78-0.56-0.79-1.11c-0.01-0.56,0.23-0.98,0.75-1.18
			c0.66-0.25,1.36-0.25,2.03-0.08c0.6,0.15,1,0.78,0.91,1.34c-0.1,0.68-0.63,1.15-1.29,1.17c-0.16,0-0.31,0-0.47,0
			C18.16,29.46,18.15,29.48,18.15,29.49z"/>
	</g>
</g>
<g id="Laag_2">
	<g>
		<path d="M47.37,13.7c0,6.76,0,13.51,0,20.27c-0.02,0.06-0.04,0.11-0.05,0.17c-0.08,0.75-0.31,1.45-0.7,2.09
			c-1.07,1.71-2.62,2.63-4.64,2.63c-12.17,0.01-24.34,0.01-36.52,0c-0.31,0-0.63-0.03-0.94-0.07C2.01,38.45,0,36.15,0,33.62
			C0,27.08,0,20.54,0,14c0-0.14,0-0.28,0.01-0.42c0.33-2.96,2.83-4.87,5.41-4.85c2.95,0.03,5.91,0.01,8.86,0.01c0.1,0,0.21,0,0.33,0
			c0-0.12,0-0.22,0-0.31c0-1.23-0.01-2.45,0-3.68c0.01-2.01,1.64-3.63,3.65-3.63c3.6,0,7.2,0,10.8,0c0.26,0,0.53,0.02,0.78,0.07
			c1.51,0.3,2.77,1.68,2.83,3.21c0.06,1.33,0.02,2.66,0.03,3.99c0,0.1,0,0.2,0,0.34c0.14,0,0.26,0,0.37,0c2.99,0,5.98,0,8.96,0
			c0.2,0,0.41,0,0.6,0.03c2.29,0.39,3.81,1.68,4.51,3.9C47.26,13.01,47.3,13.36,47.37,13.7z M23.67,11.8
			C23.67,11.8,23.67,11.81,23.67,11.8c-6.09,0-12.18,0-18.27,0c-1.33,0-2.34,1.03-2.34,2.35c0,6.42,0,12.85,0,19.27
			c0,1.35,1.03,2.37,2.38,2.37c12.16,0,24.32,0,36.48,0c1.33,0,2.35-1,2.36-2.33c0-6.44,0-12.88-0.01-19.32
			c0-0.3-0.06-0.61-0.17-0.89c-0.36-0.94-1.21-1.46-2.33-1.46C35.75,11.8,29.71,11.8,23.67,11.8z M29.65,8.73
			c0-0.09,0.01-0.16,0.01-0.23c0-1.2,0-2.4,0-3.6c0-0.5-0.23-0.72-0.72-0.72c-3.5,0-7.01,0-10.51,0c-0.51,0-0.72,0.21-0.72,0.71
			c0,1.19,0,2.38,0,3.57c0,0.08,0.01,0.17,0.02,0.26C21.7,8.73,25.66,8.73,29.65,8.73z"/>
		<path d="M26.33,26.45c0,0.62,0.02,1.21-0.01,1.81c-0.02,0.42-0.02,0.85-0.14,1.24c-0.26,0.9-1.08,1.47-2.01,1.47
			c-0.51,0-1.02,0.03-1.52-0.05c-1-0.17-1.66-1.02-1.66-2.03c-0.01-0.8,0-1.59,0-2.43c-0.11,0-0.2,0-0.3,0c-0.74,0-1.47,0-2.21,0
			c-1.18-0.01-1.99-0.82-2-2c0-0.41,0-0.82,0-1.23c0.01-1.16,0.91-2.06,2.07-2.07c0.81,0,1.63,0,2.47,0c0-0.47-0.01-0.92,0-1.38
			c0.01-0.51-0.03-1.02,0.06-1.52c0.18-0.98,1.04-1.63,2.04-1.63c0.56,0,1.13-0.03,1.67,0.06c0.89,0.15,1.48,0.94,1.49,1.84
			c0,0.79,0.01,1.57,0.02,2.36c0,0.08,0.01,0.15,0.02,0.25c0.85,0,1.68,0,2.51,0c0.45,0,0.86,0.13,1.22,0.4
			c0.46,0.36,0.74,0.82,0.76,1.4c0.02,0.56,0.06,1.13-0.03,1.67c-0.16,1.07-1.08,1.8-2.19,1.81C27.86,26.46,27.12,26.45,26.33,26.45
			z M18.47,24.47c0.13,0,0.22,0,0.32,0c0.78,0,1.56,0,2.34,0.01c1.1,0.01,1.83,0.74,1.84,1.83c0.01,0.8,0.02,1.59,0.01,2.39
			c0,0.25,0.08,0.32,0.32,0.3c0.2-0.02,0.4,0,0.6,0c0.44,0,0.45-0.01,0.46-0.46c0.01-0.81,0.01-1.63,0.04-2.44
			c0.03-0.94,0.76-1.63,1.71-1.63c0.81,0,1.61,0,2.42,0c0.15,0,0.31-0.03,0.32-0.2c0.02-0.37,0.01-0.74,0.01-1.12
			c-0.13,0-0.22,0-0.32,0c-0.84,0-1.68,0-2.52,0c-0.89,0-1.61-0.65-1.65-1.54c-0.04-0.89-0.03-1.78-0.04-2.67c0-0.1,0-0.2,0-0.31
			c-0.35,0-0.66,0.01-0.96,0c-0.25-0.02-0.33,0.06-0.33,0.32c0.02,0.84,0.01,1.68,0,2.52c-0.01,1.02-0.68,1.69-1.7,1.69
			c-0.87,0-1.73,0-2.6,0c-0.13,0-0.25-0.01-0.25,0.18C18.48,23.69,18.47,24.06,18.47,24.47z"/>
	</g>
</g>
</svg>
